<svg width="1364" height="1809" viewBox="0 0 1364 1809" fill="none" xmlns="http://www.w3.org/2000/svg">
<path d="M1062.61 25.2058L1058.08 20.8004C1059.54 18.9843 1060.34 16.7415 1060.33 14.4327C1060.33 12.3766 1059.71 10.3665 1058.54 8.6569C1057.36 6.94725 1055.7 5.61474 1053.75 4.82787C1051.8 4.041 1049.65 3.83512 1047.59 4.23626C1045.52 4.63741 1043.62 5.62755 1042.12 7.08149C1040.63 8.53543 1039.62 10.3879 1039.2 12.4045C1038.79 14.4212 1039 16.5115 1039.81 18.4112C1040.62 20.3109 1041.99 21.9345 1043.74 23.0769C1045.49 24.2192 1047.56 24.829 1049.67 24.829C1052.04 24.8318 1054.34 24.0583 1056.2 22.6328L1060.72 27.0512C1060.84 27.173 1060.99 27.2696 1061.15 27.3356C1061.32 27.4016 1061.49 27.4356 1061.67 27.4356C1061.84 27.4356 1062.02 27.4016 1062.18 27.3356C1062.34 27.2696 1062.49 27.173 1062.61 27.0512C1062.74 26.9303 1062.84 26.7866 1062.91 26.6283C1062.97 26.4699 1063.01 26.3 1063.01 26.1285C1063.01 25.9569 1062.97 25.7871 1062.91 25.6287C1062.84 25.4704 1062.74 25.3266 1062.61 25.2058ZM1041.67 14.4327C1041.67 12.8906 1042.14 11.3831 1043.01 10.1009C1043.89 8.81862 1045.14 7.81923 1046.61 7.22909C1048.07 6.63894 1049.68 6.48453 1051.23 6.78538C1052.78 7.08624 1054.2 7.82885 1055.32 8.9193C1056.44 10.0098 1057.2 11.3991 1057.51 12.9116C1057.82 14.4241 1057.66 15.9918 1057.06 17.4166C1056.45 18.8413 1055.43 20.0591 1054.11 20.9158C1052.8 21.7726 1051.25 22.2299 1049.67 22.2299C1047.54 22.2299 1045.51 21.4084 1044.01 19.9462C1042.51 18.4839 1041.67 16.5007 1041.67 14.4327Z" fill="#201713" stroke="#32004C"/>
<path d="M859 237L851 244.797M851 237L859 244.797" stroke="#A80202" stroke-width="1.5" stroke-linecap="round" stroke-linejoin="round"/>
<path d="M1363 814L1352 824.721M1352 814L1363 824.721" stroke="white" stroke-width="2" stroke-linecap="round" stroke-linejoin="round"/>
<path d="M859 1221L851 1228.8M851 1221L859 1228.8" stroke="#A80202" stroke-width="1.5" stroke-linecap="round" stroke-linejoin="round"/>
<path d="M1363 1797.05L1352 1807.77M1352 1797.05L1363 1807.77" stroke="white" stroke-width="2" stroke-linecap="round" stroke-linejoin="round"/>
<path d="M17.1593 114.152C17.1993 113.84 17.2293 113.528 17.2293 113.197C17.2293 112.866 17.1993 112.554 17.1593 112.242L19.2693 110.634C19.4593 110.487 19.5093 110.224 19.3893 110.01L17.3893 106.638C17.2693 106.423 16.9993 106.345 16.7793 106.423L14.2893 107.398C13.7693 107.008 13.2093 106.686 12.5993 106.443L12.2193 103.86C12.1893 103.626 11.9793 103.45 11.7293 103.45H7.72933C7.47933 103.45 7.26933 103.626 7.23933 103.86L6.85933 106.443C6.24933 106.686 5.68933 107.018 5.16933 107.398L2.67933 106.423C2.44933 106.335 2.18933 106.423 2.06933 106.638L0.0693316 110.01C-0.0606684 110.224 -0.000668302 110.487 0.189332 110.634L2.29933 112.242C2.25933 112.554 2.22933 112.875 2.22933 113.197C2.22933 113.519 2.25933 113.84 2.29933 114.152L0.189332 115.76C-0.000668302 115.906 -0.0506684 116.17 0.0693316 116.384L2.06933 119.756C2.18933 119.971 2.45933 120.049 2.67933 119.971L5.16933 118.996C5.68933 119.386 6.24933 119.708 6.85933 119.951L7.23933 122.534C7.26933 122.768 7.47933 122.943 7.72933 122.943H11.7293C11.9793 122.943 12.1893 122.768 12.2193 122.534L12.5993 119.951C13.2093 119.708 13.7693 119.376 14.2893 118.996L16.7793 119.971C17.0093 120.058 17.2693 119.971 17.3893 119.756L19.3893 116.384C19.5093 116.17 19.4593 115.906 19.2693 115.76L17.1593 114.152ZM9.72933 116.608C7.79933 116.608 6.22933 115.078 6.22933 113.197C6.22933 111.316 7.79933 109.786 9.72933 109.786C11.6593 109.786 13.2293 111.316 13.2293 113.197C13.2293 115.078 11.6593 116.608 9.72933 116.608Z" fill="#32004C"/>
</svg>
