<svg width="172" height="34" viewBox="0 0 172 34" fill="none" xmlns="http://www.w3.org/2000/svg">
<g clip-path="url(#clip0_1201_120)">
<path d="M27.134 21.1702L25.3434 19.3425C24.9206 19.6139 24.3408 19.6139 23.918 19.3425L17.832 25.5547C17.9666 25.7705 18.037 26.0222 18.037 26.2838C18.037 26.5453 17.9666 26.7971 17.832 27.0129L19.6226 28.8406C19.834 28.7032 20.0806 28.6313 20.3369 28.6313C20.5932 28.6313 20.8398 28.7032 21.0512 28.8406L27.1372 22.6284C26.8649 22.187 26.8649 21.6149 27.1372 21.1735L27.134 21.1702ZM23.476 24.8779L23.255 25.1035C23.255 25.1035 23.239 25.1133 23.2326 25.1035L23.082 24.9498C22.9763 25.0054 22.861 25.025 22.7361 25.0087C22.6111 24.989 22.5054 24.9367 22.4125 24.8419L22.2428 24.6686C22.2428 24.6686 22.2364 24.6588 22.2428 24.6523L22.4766 24.4136C22.4766 24.4136 22.4862 24.4071 22.4926 24.4136L22.6656 24.5836C22.7136 24.6327 22.7681 24.6588 22.829 24.6555C22.8898 24.6555 22.9411 24.6327 22.9795 24.5901C23.0211 24.5476 23.0404 24.4953 23.0404 24.4299C23.0404 24.3678 23.0147 24.3122 22.9699 24.2697C22.9251 24.2272 22.8834 24.1978 22.8354 24.188C22.7873 24.1782 22.7233 24.1815 22.6464 24.2011L22.3197 24.2959C22.214 24.3286 22.1115 24.3384 22.0154 24.322C21.9193 24.3057 21.8296 24.2534 21.7463 24.1684C21.6502 24.0703 21.5925 23.9591 21.5765 23.8349C21.5573 23.7106 21.5765 23.5897 21.6342 23.4785L21.4836 23.3248C21.4836 23.3248 21.4772 23.3118 21.4836 23.3019L21.7047 23.0764C21.7047 23.0764 21.7175 23.0698 21.7239 23.0764L21.8712 23.2267C21.9801 23.1679 22.0986 23.145 22.23 23.1646C22.3581 23.1842 22.4702 23.2398 22.5631 23.3346L22.6592 23.4327C22.6592 23.4327 22.6656 23.4458 22.6592 23.4523L22.4286 23.6878C22.4286 23.6878 22.419 23.691 22.4093 23.6878L22.3133 23.5897C22.2684 23.5439 22.214 23.521 22.1499 23.521C22.0858 23.521 22.0314 23.5406 21.9897 23.5831C21.9481 23.6256 21.9257 23.6812 21.9289 23.7466C21.9321 23.812 21.9545 23.8643 21.9961 23.9035C22.0474 23.9559 22.1275 23.9689 22.23 23.9395C22.2652 23.9297 22.3197 23.9166 22.3933 23.8937C22.467 23.8709 22.5343 23.8512 22.5951 23.8316C22.7168 23.7956 22.8322 23.7924 22.9379 23.8283C23.0436 23.8643 23.1397 23.9232 23.2262 24.0114C23.3222 24.1095 23.3767 24.2207 23.3895 24.3482C23.4055 24.4757 23.3831 24.5934 23.3254 24.7046L23.4728 24.855C23.4728 24.855 23.4792 24.8681 23.4728 24.8746L23.476 24.8779Z" fill="#009933"/>
<path d="M31.0194 21.8374L24.6932 15.38C24.5778 15.2623 24.3889 15.2623 24.2735 15.38L13.9498 25.9178C13.8345 26.0355 13.8345 26.2284 13.9498 26.3461L20.276 32.8034C20.3913 32.9211 20.5803 32.9211 20.6956 32.8034L31.0194 22.2657C31.1347 22.148 31.1347 21.9551 31.0194 21.8374ZM27.7426 21.3633C27.6016 21.5072 27.5248 21.6968 27.5248 21.8995C27.5248 22.1022 27.6016 22.2918 27.7426 22.4357V22.864L21.2818 29.4587H20.8622C20.5707 29.1612 20.0998 29.1612 19.8083 29.4587H19.3887L17.2234 27.2485V26.8202C17.5149 26.5226 17.5149 26.042 17.2234 25.7445V25.3162L23.6842 18.7215H24.1038C24.2447 18.8654 24.4305 18.9438 24.6291 18.9438C24.8277 18.9438 25.0135 18.8654 25.1544 18.7215H25.574L27.7394 20.9317V21.36L27.7426 21.3633Z" fill="#009933"/>
<path d="M14.0844 19.9736C14.4912 19.9245 14.6642 19.918 14.9108 20.2449L15.4586 20.804C15.6379 20.9871 16.1056 21.4612 16.2786 21.641C16.285 21.8209 16.2946 21.9974 16.2722 22.2067C16.0704 22.2296 15.8942 22.2198 15.718 22.2132C15.545 22.0367 15.0774 21.5593 14.898 21.3762L14.3503 20.8171C14.0299 20.5654 14.0364 20.3855 14.0844 19.9736Z" fill="#009933"/>
<path d="M13.0593 21.02C13.4661 20.9709 13.639 20.9644 13.8857 21.2913L14.4334 21.8504C14.6128 22.0335 15.0804 22.5076 15.2534 22.6874C15.2598 22.8673 15.2694 23.0438 15.247 23.2531C15.0452 23.276 14.869 23.2661 14.6929 23.2596C14.5199 23.083 14.0522 22.6057 13.8729 22.4226L13.3251 21.8635C13.0048 21.6118 13.0112 21.4319 13.0593 21.02Z" fill="#009933"/>
<path d="M19.5329 14.4089C19.9397 14.3598 20.1127 14.3533 20.3593 14.6803L20.907 15.2393C21.0864 15.4224 21.5541 15.8965 21.7271 16.0763C21.7335 16.2562 21.7431 16.4327 21.7206 16.642C21.5188 16.6649 21.3427 16.6551 21.1665 16.6485C20.9935 16.472 20.5259 15.9946 20.3465 15.8115L19.7987 15.2524C19.4784 15.0007 19.4848 14.8208 19.5329 14.4089Z" fill="#009933"/>
<path d="M18.5077 15.455C18.9145 15.406 19.0875 15.3994 19.3342 15.7264L19.8819 16.2855C20.0613 16.4686 20.5289 16.9427 20.7019 17.1225C20.7083 17.3023 20.7179 17.4789 20.6955 17.6881C20.4937 17.711 20.3175 17.7012 20.1414 17.6947C19.9684 17.5181 19.5007 17.0408 19.3213 16.8577L18.7736 16.2986C18.4533 16.0468 18.4597 15.867 18.5077 15.455Z" fill="#009933"/>
<path d="M15.814 13.5916L17.3291 15.1315C17.3867 15.1904 17.438 15.1937 17.4828 15.1479L19.4047 13.1862C19.4496 13.1404 19.4431 13.0881 19.3887 13.0292L17.8736 11.4893L15.8172 13.5883L15.814 13.5916Z" fill="#009933"/>
<path d="M11.5987 16.5994L5.08352 9.92302L9.43661 10.7568L8.63903 6.29709L15.1799 12.9473L17.2363 10.8483L7.66847 1.14102C7.62363 1.09525 7.57878 1.09525 7.53394 1.14102L5.44227 3.27603C5.39743 3.32181 5.38141 3.3872 5.39102 3.46567L6.08931 7.33681L2.29677 6.62405C2.21669 6.61097 2.15583 6.63059 2.11099 6.67636L0.0353422 8.79503C-0.00950207 8.8408 -0.00950207 8.88657 0.0353422 8.93235L9.54552 18.6952L11.6019 16.5962L11.5987 16.5994Z" fill="#009933"/>
<path d="M11.8357 20.912L13.7576 18.9503C13.8025 18.9045 13.7961 18.8522 13.7416 18.7933L12.2329 17.2468L10.1765 19.3459L11.6852 20.8924C11.7429 20.9512 11.7941 20.9545 11.839 20.9087L11.8357 20.912Z" fill="#009933"/>
<path d="M41.1733 0H40.853V34H41.1733V0Z" fill="#009933"/>
<path d="M70.306 25.7934C69.4412 25.7934 68.6532 25.5678 67.9389 25.1199C67.2246 24.672 66.6544 24.0736 66.222 23.3282C65.7896 22.586 65.5718 21.7621 65.5718 20.863L65.5942 13.088C65.5942 12.1888 65.8056 11.3715 66.2316 10.6358C66.6544 9.90017 67.2278 9.31165 67.9485 8.87026C68.6692 8.42887 69.454 8.20654 70.3028 8.20654C71.1517 8.20654 71.9525 8.42887 72.6572 8.87026C73.3619 9.31165 73.9256 9.90017 74.3516 10.6358C74.7744 11.3715 74.9891 12.1888 74.9891 13.088L75.0147 20.863C75.0147 21.7621 74.8033 22.5827 74.3773 23.3282C73.9512 24.0736 73.3843 24.6687 72.67 25.1199C71.9557 25.5711 71.1677 25.7934 70.3028 25.7934H70.306ZM70.306 22.8247C70.7865 22.8247 71.2061 22.6252 71.5681 22.2231C71.9268 21.8209 72.1094 21.3697 72.1094 20.863L72.0838 13.088C72.0838 12.5485 71.9172 12.0908 71.5777 11.7148C71.2414 11.3388 70.8153 11.1491 70.3028 11.1491C69.7903 11.1491 69.3803 11.3322 69.028 11.7017C68.6756 12.0679 68.4995 12.5322 68.4995 13.088V20.863C68.4995 21.4024 68.6756 21.8634 69.028 22.2492C69.3803 22.635 69.8031 22.8247 70.3028 22.8247H70.306Z" fill="#009933"/>
<path d="M76.6067 25.5483C76.4786 25.5483 76.4145 25.4927 76.4145 25.3783L76.3889 8.6742C76.3889 8.54342 76.453 8.47803 76.5811 8.47803H78.7432L82.8048 18.1428L82.6831 8.6742C82.6831 8.54342 82.7568 8.47803 82.9009 8.47803H85.2809C85.377 8.47803 85.425 8.54342 85.425 8.6742L85.4475 25.4012C85.4475 25.4993 85.409 25.5483 85.3289 25.5483H83.2149L79.0571 16.5211L79.2269 25.3521C79.2269 25.4829 79.1532 25.5483 79.0091 25.5483H76.6067Z" fill="#009933"/>
<path d="M87.1579 25.5482C87.0938 25.5482 87.0618 25.5089 87.0618 25.4239L87.0842 8.5727C87.0842 8.5073 87.1162 8.47461 87.1803 8.47461H94.8935C94.9576 8.47461 94.9896 8.51711 94.9896 8.59885V11.3453C94.9896 11.4107 94.9576 11.4434 94.8935 11.4434H89.967V15.2687H94.8935C94.9576 15.2687 94.9896 15.3014 94.9896 15.3668L95.0152 18.1394C95.0152 18.2048 94.9832 18.2375 94.9191 18.2375H89.9702V22.5304H94.9191C94.9832 22.5304 95.0152 22.5729 95.0152 22.6546V25.4501C95.0152 25.5155 94.9832 25.5482 94.9191 25.5482H87.1579Z" fill="#009933"/>
<path d="M99.2275 25.5483C99.1794 25.5483 99.1538 25.5156 99.1538 25.4502L99.1794 18.4861L95.9602 8.57611C95.9442 8.51072 95.9698 8.47803 96.0307 8.47803H98.6989C98.779 8.47803 98.8271 8.51072 98.8431 8.57611L100.621 15.1741L102.424 8.57611C102.44 8.51072 102.479 8.47803 102.546 8.47803H105.237C105.301 8.47803 105.323 8.51072 105.307 8.57611L102.062 18.388L102.088 25.4502C102.088 25.5156 102.056 25.5483 101.992 25.5483H99.2275Z" fill="#009933"/>
<path d="M122.069 25.4239L125.048 8.5727C125.064 8.5073 125.103 8.47461 125.17 8.47461H128.655C128.719 8.47461 128.761 8.5073 128.777 8.5727L131.637 25.4239C131.653 25.5057 131.621 25.5482 131.541 25.5482H128.873C128.809 25.5482 128.767 25.5089 128.751 25.4239L128.485 23.6322H125.218L124.952 25.4239C124.936 25.5057 124.894 25.5482 124.83 25.5482H122.162C122.098 25.5482 122.066 25.5089 122.066 25.4239H122.069ZM125.698 21.01H128.005L127.018 14.1178L126.874 13.2089L126.778 14.1178L125.695 21.01H125.698Z" fill="#009933"/>
<path d="M137.002 25.7934C136.138 25.7934 135.353 25.5744 134.648 25.1297C133.943 24.6883 133.38 24.0965 132.954 23.3511C132.528 22.6089 132.316 21.7784 132.316 20.863V13.088C132.316 12.2052 132.528 11.3911 132.954 10.6489C133.38 9.90344 133.947 9.31165 134.661 8.87026C135.372 8.42887 136.154 8.20654 137.002 8.20654C137.851 8.20654 138.681 8.42233 139.392 8.85718C140.103 9.29203 140.67 9.87401 141.086 10.6097C141.503 11.3453 141.711 12.1725 141.711 13.088V14.216C141.711 14.2814 141.669 14.3141 141.589 14.3141H138.899C138.835 14.3141 138.803 14.2814 138.803 14.216V13.2841C138.803 12.6629 138.63 12.1463 138.287 11.7377C137.941 11.329 137.515 11.123 137.002 11.123C136.538 11.123 136.125 11.3191 135.766 11.7115C135.407 12.1038 135.225 12.5616 135.225 13.0847V20.8597C135.225 21.3992 135.401 21.8602 135.753 22.246C136.106 22.6318 136.522 22.8214 137.002 22.8214C137.515 22.8214 137.944 22.635 138.287 22.2558C138.63 21.8798 138.803 21.4122 138.803 20.8564V19.6532H137.121C137.041 19.6532 136.999 19.614 136.999 19.529V16.7826C136.999 16.7008 137.038 16.6583 137.121 16.6583H141.615C141.679 16.6583 141.711 16.7008 141.711 16.7826V20.8531C141.711 21.7686 141.5 22.5991 141.074 23.3413C140.648 24.0867 140.084 24.6785 139.379 25.1199C138.674 25.5613 137.88 25.7836 136.999 25.7836L137.002 25.7934Z" fill="#009933"/>
<path d="M143.245 25.5483C143.117 25.5483 143.053 25.4927 143.053 25.3783L143.031 8.6742C143.031 8.54342 143.095 8.47803 143.223 8.47803H145.385L149.447 18.1428L149.325 8.6742C149.325 8.54342 149.399 8.47803 149.543 8.47803H151.923C152.019 8.47803 152.067 8.54342 152.067 8.6742L152.092 25.4012C152.092 25.4993 152.054 25.5483 151.971 25.5483H149.857L145.699 16.5211L145.869 25.3521C145.869 25.4829 145.795 25.5483 145.654 25.5483H143.252H143.245Z" fill="#009933"/>
<path d="M153.797 25.5482C153.732 25.5482 153.7 25.5089 153.7 25.4239L153.723 8.5727C153.723 8.5073 153.755 8.47461 153.819 8.47461H161.532C161.596 8.47461 161.628 8.51711 161.628 8.59885V11.3453C161.628 11.4107 161.596 11.4434 161.532 11.4434H156.606V15.2687H161.532C161.596 15.2687 161.628 15.3014 161.628 15.3668L161.654 18.1394C161.654 18.2048 161.622 18.2375 161.558 18.2375H156.609V22.5304H161.558C161.622 22.5304 161.654 22.5729 161.654 22.6546V25.4501C161.654 25.5155 161.622 25.5482 161.558 25.5482H153.797Z" fill="#009933"/>
<path d="M165.968 25.5482C165.904 25.5482 165.872 25.5089 165.872 25.4239V11.4434H162.749C162.669 11.4434 162.627 11.4041 162.627 11.3191L162.653 8.5727C162.653 8.5073 162.685 8.47461 162.749 8.47461H171.881C171.961 8.47461 172.003 8.5073 172.003 8.5727V11.3191C172.003 11.4009 171.971 11.4434 171.907 11.4434H168.758L168.784 25.4239C168.784 25.5057 168.752 25.5482 168.688 25.5482H165.972H165.968Z" fill="#009933"/>
<path d="M61.334 23.2466V25.4306C61.3372 25.5124 61.3692 25.5549 61.4333 25.5549H64.1496C64.2137 25.5549 64.2457 25.5156 64.2457 25.4306L64.2393 23.2466H61.3308H61.334Z" fill="#009933"/>
<path d="M56.27 22.3343L56.2892 12.9115L58.7909 16.642L61.315 12.9115L61.3342 22.3343H64.2426L64.2042 8.56952C64.2042 8.50413 64.1722 8.47144 64.1081 8.47144H61.1516C61.0875 8.47144 61.0299 8.50413 60.9818 8.56952L58.7941 11.8096L56.6063 8.56952C56.5583 8.50413 56.5006 8.47144 56.4365 8.47144H53.5025C53.4384 8.47144 53.4064 8.50413 53.4064 8.56952L53.3679 22.3343H56.2764H56.27Z" fill="#009933"/>
<path d="M53.4511 25.5549H56.1674C56.2314 25.5549 56.2634 25.5156 56.2634 25.4306V23.2466H53.3614L53.355 25.4306C53.355 25.5124 53.387 25.5549 53.4511 25.5549Z" fill="#009933"/>
<path d="M118.161 23.2466V25.4306C118.165 25.5124 118.197 25.5549 118.261 25.5549H120.977C121.041 25.5549 121.073 25.5156 121.073 25.4306L121.067 23.2466H118.158H118.161Z" fill="#009933"/>
<path d="M113.097 22.3343L113.116 12.9115L115.618 16.642L118.142 12.9115L118.161 22.3343H121.07L121.031 8.56952C121.031 8.50413 120.999 8.47144 120.935 8.47144H117.979C117.915 8.47144 117.857 8.50413 117.809 8.56952L115.621 11.8096L113.433 8.56952C113.385 8.50413 113.328 8.47144 113.264 8.47144H110.33C110.266 8.47144 110.234 8.50413 110.234 8.56952L110.195 22.3343H113.104H113.097Z" fill="#009933"/>
<path d="M110.278 25.5549H112.995C113.059 25.5549 113.091 25.5156 113.091 25.4306V23.2466H110.189L110.182 25.4306C110.182 25.5124 110.214 25.5549 110.278 25.5549Z" fill="#009933"/>
</g>
<defs>
<clipPath id="clip0_1201_120">
<rect width="172" height="34" fill="white"/>
</clipPath>
</defs>
</svg>
