<svg width="330" height="67" viewBox="0 0 330 67" fill="none" xmlns="http://www.w3.org/2000/svg">
<path d="M40.3591 32.8315L37.6958 30.0394C37.0669 30.454 36.2046 30.454 35.5757 30.0394L26.5236 39.5295C26.7237 39.8592 26.8285 40.2438 26.8285 40.6434C26.8285 41.043 26.7237 41.4276 26.5236 41.7572L29.1868 44.5493C29.5012 44.3395 29.8681 44.2296 30.2492 44.2296C30.6304 44.2296 30.9972 44.3395 31.3117 44.5493L40.3638 35.0592C39.9589 34.3849 39.9589 33.5108 40.3638 32.8365L40.3591 32.8315ZM34.9182 38.4956L34.5895 38.8402C34.5895 38.8402 34.5657 38.8552 34.5562 38.8402L34.3322 38.6055C34.175 38.6904 34.0035 38.7204 33.8177 38.6954C33.6319 38.6654 33.4747 38.5855 33.3365 38.4407L33.084 38.1759C33.084 38.1759 33.0745 38.161 33.084 38.151L33.4318 37.7863C33.4318 37.7863 33.4461 37.7764 33.4556 37.7863L33.7129 38.0461C33.7843 38.121 33.8653 38.161 33.9559 38.156C34.0464 38.156 34.1226 38.121 34.1798 38.0561C34.2417 37.9911 34.2703 37.9112 34.2703 37.8113C34.2703 37.7164 34.2322 37.6315 34.1655 37.5666C34.0988 37.5016 34.0369 37.4567 33.9654 37.4417C33.8939 37.4267 33.7986 37.4317 33.6843 37.4617L33.1983 37.6065C33.0411 37.6565 32.8887 37.6715 32.7457 37.6465C32.6028 37.6215 32.4694 37.5416 32.3455 37.4117C32.2026 37.2619 32.1168 37.0921 32.093 36.9023C32.0644 36.7125 32.093 36.5277 32.1788 36.3578L31.9549 36.1231C31.9549 36.1231 31.9453 36.1031 31.9549 36.0881L32.2836 35.7435C32.2836 35.7435 32.3027 35.7335 32.3122 35.7435L32.5313 35.9732C32.6933 35.8833 32.8696 35.8484 33.0649 35.8783C33.2555 35.9083 33.4223 35.9932 33.5604 36.1381L33.7034 36.2879C33.7034 36.2879 33.7129 36.3079 33.7034 36.3179L33.3603 36.6775C33.3603 36.6775 33.346 36.6825 33.3317 36.6775L33.1888 36.5277C33.1221 36.4577 33.0411 36.4228 32.9458 36.4228C32.8505 36.4228 32.7696 36.4527 32.7076 36.5177C32.6457 36.5826 32.6123 36.6675 32.6171 36.7674C32.6219 36.8673 32.6552 36.9472 32.7171 37.0072C32.7934 37.0871 32.9125 37.1071 33.0649 37.0621C33.1173 37.0471 33.1983 37.0271 33.3079 36.9922C33.4175 36.9572 33.5175 36.9272 33.6081 36.8973C33.7891 36.8423 33.9606 36.8373 34.1178 36.8923C34.2751 36.9472 34.418 37.0371 34.5466 37.172C34.6896 37.3218 34.7706 37.4917 34.7896 37.6865C34.8134 37.8812 34.7801 38.0611 34.6943 38.2309L34.9135 38.4606C34.9135 38.4606 34.923 38.4806 34.9135 38.4906L34.9182 38.4956Z" fill="#009933"/>
<path d="M46.1382 33.8504L36.7287 23.9857C36.5572 23.8059 36.2761 23.8059 36.1046 23.9857L20.7492 40.084C20.5777 40.2638 20.5777 40.5585 20.7492 40.7383L30.1587 50.603C30.3302 50.7828 30.6113 50.7828 30.7828 50.603L46.1382 34.5048C46.3097 34.325 46.3097 34.0303 46.1382 33.8504ZM41.2643 33.1262C41.0547 33.346 40.9403 33.6357 40.9403 33.9453C40.9403 34.255 41.0547 34.5447 41.2643 34.7645V35.4188L31.6547 45.4933H31.0306C30.597 45.0388 29.8967 45.0388 29.4631 45.4933H28.839L25.6184 42.1168V41.4625C26.0519 41.008 26.0519 40.2738 25.6184 39.8192V39.1649L35.2279 29.0904H35.8521C36.0617 29.3102 36.338 29.43 36.6334 29.43C36.9288 29.43 37.2051 29.3102 37.4147 29.0904H38.0389L41.2595 32.4669V33.1212L41.2643 33.1262Z" fill="#009933"/>
<path d="M20.9493 31.0034C21.5544 30.9285 21.8116 30.9185 22.1785 31.418L22.9932 32.2721C23.26 32.5518 23.9556 33.276 24.2128 33.5508C24.2224 33.8255 24.2367 34.0952 24.2033 34.4149C23.9032 34.4498 23.6411 34.4348 23.3791 34.4249C23.1218 34.1551 22.4262 33.4259 22.1594 33.1462L21.3447 32.2921C20.8683 31.9075 20.8778 31.6328 20.9493 31.0034Z" fill="#009933"/>
<path d="M19.4248 32.6017C20.0298 32.5268 20.2871 32.5168 20.6539 33.0163L21.4686 33.8704C21.7354 34.1501 22.431 34.8744 22.6883 35.1491C22.6978 35.4238 22.7121 35.6935 22.6788 36.0132C22.3786 36.0482 22.1166 36.0332 21.8545 36.0232C21.5973 35.7535 20.9017 35.0242 20.6349 34.7445L19.8202 33.8904C19.3438 33.5058 19.3533 33.2311 19.4248 32.6017Z" fill="#009933"/>
<path d="M29.0534 22.5023C29.6585 22.4273 29.9158 22.4174 30.2826 22.9168L31.0973 23.7709C31.3641 24.0507 32.0597 24.7749 32.317 25.0496C32.3265 25.3243 32.3408 25.594 32.3074 25.9137C32.0073 25.9487 31.7452 25.9337 31.4832 25.9237C31.2259 25.654 30.5303 24.9247 30.2635 24.645L29.4489 23.7909C28.9724 23.4063 28.982 23.1316 29.0534 22.5023Z" fill="#009933"/>
<path d="M27.5289 24.1006C28.1339 24.0257 28.3912 24.0157 28.7581 24.5152L29.5728 25.3693C29.8396 25.649 30.5352 26.3732 30.7924 26.648C30.802 26.9227 30.8162 27.1924 30.7829 27.5121C30.4827 27.547 30.2207 27.532 29.9587 27.522C29.7014 27.2523 29.0058 26.5231 28.739 26.2434L27.9243 25.3893C27.4479 25.0047 27.4574 24.73 27.5289 24.1006Z" fill="#009933"/>
<path d="M23.5221 21.2536L25.7756 23.6061C25.8614 23.696 25.9376 23.701 26.0043 23.6311L28.8629 20.6342C28.9296 20.5643 28.92 20.4844 28.839 20.3945L26.5855 18.0419L23.5269 21.2486L23.5221 21.2536Z" fill="#009933"/>
<path d="M17.2524 25.8488L7.56185 15.6494L14.0365 16.9231L12.8502 10.1102L22.5789 20.2696L25.6376 17.0629L11.4066 2.23338C11.3399 2.16345 11.2732 2.16345 11.2065 2.23338L8.09545 5.49498C8.02875 5.56491 8.00493 5.6648 8.01922 5.78468L9.05784 11.6985L3.41691 10.6097C3.29781 10.5897 3.20728 10.6196 3.14058 10.6896L0.053321 13.9262C-0.0133791 13.9961 -0.0133791 14.0661 0.053321 14.136L14.1985 29.0505L17.2572 25.8438L17.2524 25.8488Z" fill="#009933"/>
<path d="M17.6049 32.4369L20.4634 29.44C20.5301 29.3701 20.5206 29.2902 20.4396 29.2003L18.1956 26.8378L15.137 30.0444L17.3809 32.407C17.4667 32.4969 17.5429 32.5019 17.6096 32.4319L17.6049 32.4369Z" fill="#009933"/>
<path d="M95.7409 39.8604C94.0816 39.8604 92.5698 39.4158 91.1993 38.5331C89.8288 37.6505 88.7349 36.4714 87.9053 35.0024C87.0756 33.5399 86.6577 31.9163 86.6577 30.1445L86.7007 14.8232C86.7007 13.0514 87.1063 11.4406 87.9237 9.99097C88.7349 8.54132 89.835 7.38159 91.2177 6.51179C92.6005 5.642 94.1062 5.20388 95.7348 5.20388C97.3633 5.20388 98.8997 5.642 100.252 6.51179C101.604 7.38159 102.685 8.54132 103.503 9.99097C104.314 11.4406 104.726 13.0514 104.726 14.8232L104.775 30.1445C104.775 31.9163 104.369 33.5334 103.552 35.0024C102.735 36.4714 101.647 37.644 100.276 38.5331C98.9059 39.4223 97.3941 39.8604 95.7348 39.8604H95.7409ZM95.7409 34.0102C96.6627 34.0102 97.4678 33.6172 98.1623 32.8247C98.8506 32.0322 99.2009 31.1431 99.2009 30.1445L99.1517 14.8232C99.1517 13.7601 98.8321 12.8581 98.1807 12.1171C97.5354 11.3762 96.718 11.0025 95.7348 11.0025C94.7515 11.0025 93.9648 11.3633 93.2888 12.0914C92.6128 12.813 92.2748 13.7279 92.2748 14.8232V30.1445C92.2748 31.2075 92.6128 32.116 93.2888 32.8763C93.9648 33.6365 94.776 34.0102 95.7348 34.0102H95.7409Z" fill="#009933"/>
<path d="M107.829 39.3772C107.583 39.3772 107.461 39.2676 107.461 39.0421L107.411 6.12522C107.411 5.8675 107.534 5.73864 107.78 5.73864H111.928L119.721 24.7839L119.487 6.12522C119.487 5.8675 119.629 5.73864 119.905 5.73864H124.472C124.656 5.73864 124.748 5.8675 124.748 6.12522L124.791 39.0872C124.791 39.2805 124.717 39.3772 124.564 39.3772H120.508L112.531 21.5882L112.856 38.9906C112.856 39.2483 112.715 39.3772 112.438 39.3772H107.829Z" fill="#009933"/>
<path d="M128.073 39.3772C127.95 39.3772 127.888 39.2999 127.888 39.1323L127.931 5.92549C127.931 5.79663 127.993 5.7322 128.116 5.7322H142.914C143.037 5.7322 143.099 5.81596 143.099 5.97703V11.3891C143.099 11.5179 143.037 11.5824 142.914 11.5824H133.462V19.1206H142.914C143.037 19.1206 143.099 19.185 143.099 19.3139L143.148 24.7775C143.148 24.9064 143.086 24.9708 142.964 24.9708H133.469V33.4303H142.964C143.086 33.4303 143.148 33.5141 143.148 33.6752V39.1839C143.148 39.3127 143.086 39.3772 142.964 39.3772H128.073Z" fill="#009933"/>
<path d="M151.229 39.3772C151.137 39.3772 151.088 39.3127 151.088 39.1839L151.137 25.4604L144.961 5.93193C144.93 5.80307 144.979 5.73864 145.096 5.73864H150.215C150.369 5.73864 150.461 5.80307 150.492 5.93193L153.903 18.9338L157.363 5.93193C157.394 5.80307 157.467 5.73864 157.596 5.73864H162.759C162.882 5.73864 162.925 5.80307 162.894 5.93193L156.668 25.2672L156.718 39.1839C156.718 39.3127 156.656 39.3772 156.533 39.3772H151.229Z" fill="#009933"/>
<path d="M195.054 39.1323L200.769 5.92549C200.8 5.79663 200.874 5.7322 201.003 5.7322H207.689C207.812 5.7322 207.892 5.79663 207.923 5.92549L213.411 39.1323C213.441 39.2934 213.38 39.3772 213.226 39.3772H208.107C207.984 39.3772 207.904 39.2999 207.873 39.1323L207.363 35.6016H201.095L200.585 39.1323C200.554 39.2934 200.474 39.3772 200.351 39.3772H195.232C195.109 39.3772 195.047 39.2999 195.047 39.1323H195.054ZM202.017 30.4344H206.441L204.549 16.8527L204.272 15.0616L204.088 16.8527L202.01 30.4344H202.017Z" fill="#009933"/>
<path d="M223.704 39.8604C222.045 39.8604 220.539 39.4287 219.187 38.5525C217.835 37.6827 216.754 36.5165 215.936 35.0475C215.119 33.585 214.713 31.9485 214.713 30.1445V14.8232C214.713 13.0836 215.119 11.4793 215.936 10.0167C216.754 8.54776 217.841 7.38159 219.212 6.51179C220.576 5.642 222.076 5.20388 223.704 5.20388C225.333 5.20388 226.925 5.62911 228.289 6.48602C229.653 7.34293 230.741 8.48977 231.54 9.93943C232.339 11.3891 232.738 13.0191 232.738 14.8232V17.046C232.738 17.1748 232.659 17.2393 232.505 17.2393H227.343C227.22 17.2393 227.158 17.1748 227.158 17.046V15.2097C227.158 13.9856 226.826 12.9676 226.169 12.1622C225.505 11.3569 224.688 10.951 223.704 10.951C222.813 10.951 222.021 11.3375 221.332 12.1107C220.644 12.8838 220.294 13.7859 220.294 14.8167V30.138C220.294 31.2011 220.632 32.1095 221.308 32.8698C221.984 33.6301 222.783 34.0038 223.704 34.0038C224.688 34.0038 225.511 33.6365 226.169 32.8891C226.826 32.1482 227.158 31.2269 227.158 30.1316V27.7606H223.932C223.778 27.7606 223.698 27.6833 223.698 27.5157V22.1037C223.698 21.9426 223.772 21.8588 223.932 21.8588H232.554C232.677 21.8588 232.738 21.9426 232.738 22.1037V30.1251C232.738 31.9291 232.333 33.5656 231.515 35.0282C230.698 36.4972 229.616 37.6633 228.264 38.5331C226.912 39.4029 225.388 39.8411 223.698 39.8411L223.704 39.8604Z" fill="#009933"/>
<path d="M235.682 39.3772C235.436 39.3772 235.314 39.2676 235.314 39.0421L235.271 6.12522C235.271 5.8675 235.393 5.73864 235.639 5.73864H239.788L247.58 24.7839L247.347 6.12522C247.347 5.8675 247.488 5.73864 247.764 5.73864H252.331C252.515 5.73864 252.607 5.8675 252.607 6.12522L252.656 39.0872C252.656 39.2805 252.583 39.3772 252.423 39.3772H248.367L240.39 21.5882L240.716 38.9906C240.716 39.2483 240.574 39.3772 240.304 39.3772H235.695H235.682Z" fill="#009933"/>
<path d="M255.926 39.3772C255.803 39.3772 255.741 39.2999 255.741 39.1323L255.784 5.92549C255.784 5.79663 255.846 5.7322 255.969 5.7322H270.767C270.89 5.7322 270.952 5.81596 270.952 5.97703V11.3891C270.952 11.5179 270.89 11.5824 270.767 11.5824H261.316V19.1206H270.767C270.89 19.1206 270.952 19.185 270.952 19.3139L271.001 24.7775C271.001 24.9064 270.94 24.9708 270.817 24.9708H261.322V33.4303H270.817C270.94 33.4303 271.001 33.5141 271.001 33.6752V39.1839C271.001 39.3127 270.94 39.3772 270.817 39.3772H255.926Z" fill="#009933"/>
<path d="M279.279 39.3772C279.156 39.3772 279.095 39.2999 279.095 39.1323V11.5824H273.103C272.949 11.5824 272.869 11.5051 272.869 11.3375L272.918 5.92549C272.918 5.79663 272.98 5.7322 273.103 5.7322H290.624C290.777 5.7322 290.857 5.79663 290.857 5.92549V11.3375C290.857 11.4986 290.796 11.5824 290.673 11.5824H284.632L284.681 39.1323C284.681 39.2934 284.62 39.3772 284.497 39.3772H279.285H279.279Z" fill="#009933"/>
<path d="M78.527 34.8413V39.1452C78.5332 39.3063 78.5946 39.39 78.7175 39.39H83.929C84.0519 39.39 84.1134 39.3127 84.1134 39.1452L84.1011 34.8413H78.5209H78.527Z" fill="#009933"/>
<path d="M68.8108 33.0438L68.8477 14.4753L73.6474 21.8266L78.4901 14.4753L78.527 33.0438H84.1072L84.0335 5.91905C84.0335 5.79019 83.972 5.72576 83.8491 5.72576H78.1767C78.0538 5.72576 77.9432 5.79019 77.851 5.91905L73.6536 12.304L69.4561 5.91905C69.3639 5.79019 69.2533 5.72576 69.1304 5.72576H63.501C63.3781 5.72576 63.3167 5.79019 63.3167 5.91905L63.2429 33.0438H68.8231H68.8108Z" fill="#009933"/>
<path d="M63.4027 39.39H68.6142C68.7371 39.39 68.7986 39.3127 68.7986 39.1452V34.8413H63.2307L63.2184 39.1452C63.2184 39.3063 63.2798 39.39 63.4027 39.39Z" fill="#009933"/>
<path d="M187.556 34.8413V39.1452C187.562 39.3063 187.624 39.39 187.747 39.39H192.958C193.081 39.39 193.142 39.3127 193.142 39.1452L193.13 34.8413H187.55H187.556Z" fill="#009933"/>
<path d="M177.84 33.0438L177.877 14.4753L182.676 21.8266L187.519 14.4753L187.556 33.0438H193.136L193.063 5.91905C193.063 5.79019 193.001 5.72576 192.878 5.72576H187.206C187.083 5.72576 186.972 5.79019 186.88 5.91905L182.683 12.304L178.485 5.91905C178.393 5.79019 178.282 5.72576 178.159 5.72576H172.53C172.407 5.72576 172.346 5.79019 172.346 5.91905L172.272 33.0438H177.852H177.84Z" fill="#009933"/>
<path d="M172.432 39.39H177.643C177.766 39.39 177.828 39.3127 177.828 39.1452V34.8413H172.26L172.247 39.1452C172.247 39.3063 172.309 39.39 172.432 39.39Z" fill="#009933"/>
</svg>
