<svg width="40" height="42" viewBox="0 0 40 42" fill="none" xmlns="http://www.w3.org/2000/svg">
<path d="M24.2666 41.0889H24.0888C22.6852 39.6374 21.2817 38.1858 19.8106 36.664C18.4497 38.0542 17.1315 39.3956 15.8221 40.7449C15.6399 40.9325 15.4888 41.0018 15.2097 40.9227C11.3546 39.8338 7.49413 38.76 3.63369 37.6898C3.37591 37.6187 3.25769 37.4934 3.19013 37.2258C2.4328 34.2294 1.66302 31.2365 0.88702 28.2454C0.636353 27.2782 0.356354 26.3182 0.0905762 25.3547V25.088C0.204354 25 0.327909 24.9227 0.429243 24.8222C1.62924 23.6365 2.82302 22.4445 4.02658 21.2622C4.15102 21.1405 4.32702 21.0711 4.47813 20.9778L4.45591 20.7591C4.27635 20.6267 4.07458 20.5165 3.91991 20.3591C2.75635 19.1787 1.6088 17.9831 0.440799 16.8071C0.225688 16.5902 0.18302 16.4045 0.264798 16.1094C1.33591 12.2516 2.39546 8.39024 3.44524 4.52713C3.51991 4.25069 3.63635 4.11024 3.91724 4.03824C6.67813 3.32713 9.43724 2.60713 12.1946 1.88091C13.3777 1.56891 14.5546 1.23469 15.7341 0.911133C15.7937 0.911133 15.8524 0.911133 15.9119 0.911133C16.4595 1.49069 16.9892 2.08802 17.5581 2.64535C18.4248 3.49424 19.319 4.31469 20.2168 5.1618C20.2408 5.13869 20.3484 5.04002 20.4515 4.93691C21.6701 3.72535 22.8968 2.5218 24.1004 1.29513C24.3439 1.04713 24.5519 1.00624 24.8737 1.0978C28.6737 2.17158 32.4755 3.2338 36.2808 4.28891C36.5697 4.36891 36.7181 4.4978 36.7937 4.79647C37.7804 8.68091 38.7759 12.5636 39.7812 16.4436C39.8586 16.7431 39.7964 16.9307 39.5804 17.1422C38.3519 18.344 37.1404 19.5627 35.9164 20.7689C35.8017 20.8818 35.6444 20.9511 35.4977 21.0471C35.6835 21.2454 35.7724 21.3431 35.8648 21.4382C37.0844 22.6907 38.2977 23.9494 39.5297 25.1885C39.7501 25.4107 39.783 25.6027 39.7039 25.888C38.6408 29.7369 37.5857 33.5876 36.5332 37.44C36.4648 37.6916 36.3946 37.8845 36.0906 37.9627C33.2115 38.7014 30.335 39.4525 27.4612 40.2089C26.3928 40.4898 25.3315 40.7965 24.2675 41.0907L24.2666 41.0889ZM23.9928 27.6098C22.663 26.2445 21.3217 24.8676 20.0132 23.5254C18.6337 24.9236 17.2781 26.2987 15.911 27.6854C17.2088 29.0151 18.5475 30.3867 19.8959 31.768C21.2755 30.368 22.6141 29.0089 23.9928 27.6107V27.6098ZM30.5964 21.0231C29.2684 19.6631 27.9306 18.2916 26.5964 16.9245C25.2097 18.3342 23.8648 19.7014 22.5021 21.0854C23.8124 22.4294 25.1528 23.8045 26.4968 25.1831C27.8675 23.792 29.2132 22.4267 30.5964 21.0222V21.0231ZM19.9786 18.4951C21.3652 17.0907 22.7128 15.7254 24.0799 14.3396C22.7706 12.9965 21.4319 11.6222 20.1181 10.2747C18.7386 11.6738 17.3857 13.0454 16.0168 14.4338C17.3066 15.7565 18.6372 17.1209 19.9777 18.4951H19.9786ZM13.4772 16.8178C12.111 18.2134 10.7608 19.592 9.39102 20.9911C10.6852 22.3191 12.0248 23.6942 13.3679 25.0738C14.735 23.6782 16.0879 22.2978 17.4559 20.9014C16.1635 19.5751 14.823 18.1991 13.4772 16.8178ZM5.62569 32.7396C7.37769 30.9565 9.09235 29.2125 10.8221 27.4525C9.52791 26.1262 8.18924 24.7529 6.80258 23.3325C5.89058 24.264 5.01502 25.1485 4.15813 26.0498C4.05858 26.1547 3.99458 26.3734 4.02835 26.5111C4.54569 28.5769 5.08258 30.6374 5.62569 32.7405V32.7396ZM17.4035 34.2062C16.0595 32.8267 14.7199 31.4525 13.3688 30.0667C11.639 31.8356 9.92702 33.5885 8.2248 35.3298C8.16791 35.2889 8.18835 35.3129 8.21324 35.32C10.2604 35.8969 12.3075 36.4738 14.3572 37.0409C14.4479 37.0658 14.599 37.0302 14.6648 36.9645C15.5759 36.0587 16.4772 35.1431 17.4026 34.2071L17.4035 34.2062ZM22.3786 34.32C23.2141 35.176 24.0772 36.0454 24.919 36.9342C25.111 37.1378 25.2781 37.168 25.535 37.0978C26.8452 36.7414 28.1608 36.4027 29.4746 36.0587C30.1848 35.8729 30.895 35.6871 31.6675 35.4854C29.9066 33.6791 28.1972 31.9254 26.4808 30.1645C25.0995 31.5636 23.7519 32.928 22.3777 34.32H22.3786ZM34.3332 9.21602C32.5617 11.0196 30.8541 12.7591 29.1244 14.5209C30.4212 15.8516 31.7661 17.2311 33.1724 18.6747C34.0959 17.728 34.9875 16.8222 35.8639 15.9022C35.9421 15.8196 35.9688 15.6338 35.9412 15.5138C35.7972 14.8809 35.6292 14.2525 35.4675 13.6231C35.0977 12.1822 34.7261 10.7414 34.3332 9.21602ZM26.6088 11.9387C28.3421 10.1742 30.0577 8.42758 31.7715 6.68269C31.8052 6.7138 31.7964 6.69869 31.7839 6.69513C29.7252 6.11113 27.6666 5.52624 25.6052 4.94935C25.5244 4.92624 25.3884 4.95469 25.3306 5.01247C24.415 5.93247 23.5084 6.86135 22.583 7.80536C23.9172 9.17513 25.2568 10.5502 26.6088 11.9387ZM5.83102 8.97247C5.24169 11.1147 4.67102 13.1627 4.12702 15.2178C4.08613 15.3716 4.17946 15.6214 4.2968 15.7458C5.0648 16.5662 5.85591 17.3654 6.64169 18.1698C6.71902 18.2489 6.81058 18.3138 6.88791 18.3796C8.25858 16.9894 9.60524 15.6231 10.967 14.2418C9.29324 12.5245 7.5928 10.7796 5.83102 8.97247ZM13.4906 11.8374C14.8701 10.424 16.2124 9.0498 17.5706 7.65869C16.7208 6.7858 15.839 5.86847 14.9359 4.97158C14.8452 4.8818 14.6132 4.87202 14.4692 4.90935C12.5359 5.40447 10.6061 5.9138 8.67547 6.42224C8.57235 6.4498 8.47546 6.49958 8.34035 6.5538C10.0701 8.32891 11.7644 10.0667 13.4906 11.8382V11.8374ZM34.1217 33.008C34.175 32.8534 34.2079 32.7734 34.2301 32.6907C34.679 31.0534 35.0524 29.3894 35.6026 27.7867C35.9395 26.8062 35.8008 26.1485 34.9946 25.5165C34.2924 24.9654 33.6746 24.3058 33.0097 23.6845C31.7199 25.0027 30.3786 26.3742 29.0141 27.7689C30.6692 29.4667 32.3697 31.2107 34.1217 33.008Z" fill="#009933"/>
</svg>
